# xmcd
#
# Track frame offsets:
#	150
#	20633
#	34061
#	49157
#	67353
#	82417
#	94363
#	110434
#	123771
#	148884
#	163700
#	178311
#	194376
#	212128
#
# Disc length: 3036 seconds
#
# Revision: 0
# Processed by: cddbd v1.5.1PL2 Copyright (c) Steve Scherf et al.
# Submitted via: EasyCDDAExtractor 8.1.0.1
#
DISCID=de0bda0e
DTITLE=Various Artist - Un beso y Una flor CD1
DYEAR=2002
DGENRE=blues
TTITLE0=Nino Bravo - Un beso y un flor
TTITLE1=Elio Roca - Yo quiero Dibujarte
TTITLE2=Los Angeles Negros - Tu Recuerdo
TTITLE3=Los Terricolas - Luto en el alma
TTITLE4=Los Pasteles Verdes - Esclavo y amo
TTITLE5=Los Angeles Negros - Como Qisiera Decirte
TTITLE6=Ruddy l'Scala - Mi vida eres tú
TTITLE7=Diego Verdager - Usted Que haría
TTITLE8=Vicky Carr - Detalles
TTITLE9=Pedro Fernandez - Despacito
TTITLE10=Karina - Se como duele
TTITLE11=Maria Conchita Alonso - Noche de Copas
TTITLE12=Ricardo Montaner - Donde va el amor
TTITLE13=Franco de Vita - No hay Cielo
EXTD=
EXTT0=
EXTT1=
EXTT2=
EXTT3=
EXTT4=
EXTT5=
EXTT6=
EXTT7=
EXTT8=
EXTT9=
EXTT10=
EXTT11=
EXTT12=
EXTT13=
PLAYORDER=
